<svg xmlns="http://www.w3.org/2000/svg" viewBox="0 0 31 31" shape-rendering="crispEdges"><path fill="#ffffff" d="M0 0h31v31H0z"/><path stroke="#000000" d="M3 3.5h7m1 0h2m1 0h2m1 0h1m3 0h7M3 4.5h1m5 0h1m3 0h5m1 0h1m1 0h1m5 0h1M3 5.5h1m1 0h3m1 0h1m1 0h3m2 0h1m2 0h1m1 0h1m1 0h3m1 0h1M3 6.5h1m1 0h3m1 0h1m2 0h1m1 0h1m1 0h2m3 0h1m1 0h3m1 0h1M3 7.5h1m1 0h3m1 0h1m2 0h1m4 0h1m3 0h1m1 0h3m1 0h1M3 8.5h1m5 0h1m1 0h1m1 0h1m3 0h1m3 0h1m5 0h1M3 9.5h7m1 0h1m1 0h1m1 0h1m1 0h1m1 0h1m1 0h7M13 10.5h1m1 0h1m1 0h3M3 11.5h1m1 0h1m3 0h2m1 0h1m4 0h1m1 0h1m2 0h1m2 0h1m1 0h1M6 12.5h3m1 0h1m2 0h1m1 0h2m1 0h1m2 0h2m1 0h1m1 0h2M3 13.5h1m4 0h5m5 0h3m1 0h4m1 0h1M3 14.5h1m1 0h2m1 0h1m5 0h1m2 0h1m1 0h2m1 0h1m1 0h1M4 15.5h3m1 0h5m2 0h1m3 0h1m1 0h1m5 0h1M4 16.5h1m5 0h2m1 0h1m4 0h2m1 0h2m3 0h2M3 17.5h2m1 0h1m1 0h2m1 0h2m1 0h2m1 0h3m4 0h2m1 0h1M7 18.5h1m3 0h3m4 0h1m2 0h4M3 19.5h4m1 0h3m1 0h1m1 0h1m3 0h6m2 0h1M11 20.5h1m2 0h2m2 0h2m3 0h1m3 0h1M3 21.5h7m1 0h2m1 0h1m1 0h1m2 0h1m1 0h1m1 0h1m3 0h1M3 22.5h1m5 0h1m5 0h1m1 0h3m3 0h1m3 0h1M3 23.5h1m1 0h3m1 0h1m2 0h2m1 0h1m2 0h6m2 0h1M3 24.5h1m1 0h3m1 0h1m3 0h3m2 0h1m1 0h1m2 0h1m1 0h2M3 25.5h1m1 0h3m1 0h1m1 0h2m1 0h1m2 0h1m1 0h1m2 0h3m1 0h2M3 26.5h1m5 0h1m7 0h3m1 0h3M3 27.5h7m1 0h1m1 0h3m3 0h1m1 0h1m2 0h1m2 0h1"/></svg>

